<svg width="55" height="55" viewBox="0 0 55 55" fill="none" xmlns="http://www.w3.org/2000/svg">
<path d="M54.3546 24.707L51.3429 27.0166C50.9126 27.3389 50.3987 27.5 49.8012 27.5C49.2036 27.5 48.6897 27.3389 48.2595 27.0166L45.8931 25.2441V44.6875C45.8931 47.5521 44.5426 49.987 41.8416 51.9922C39.1406 53.9974 35.9018 55 32.1252 55H22.9465C19.1221 55 15.8714 53.9974 13.1943 51.9922C10.5172 49.987 9.17862 47.5521 9.17862 44.6875H18.3572C18.3572 45.6543 18.7994 46.4689 19.6838 47.1313C20.5682 47.7938 21.6558 48.125 22.9465 48.125H32.1252C33.3681 48.125 34.4437 47.7938 35.352 47.1313C36.2603 46.4689 36.7145 45.6543 36.7145 44.6875V25.2441L34.3481 27.0166C33.9179 27.3389 33.404 27.5 32.8064 27.5C32.2088 27.5 31.6949 27.3389 31.2647 27.0166L28.1812 24.707C27.751 24.3848 27.5359 23.9998 27.5359 23.5522C27.5359 23.1047 27.751 22.7197 28.1812 22.3975L39.0808 14.2334C39.5111 13.9111 40.2521 13.75 41.3038 13.75C42.3077 13.75 43.0487 13.929 43.5267 14.2871L54.4263 22.3975C54.8088 22.7197 55 23.1047 55 23.5522C55 23.9998 54.7849 24.3848 54.3546 24.707ZM32.1252 6.875H22.9465C21.6558 6.875 20.5682 7.21517 19.6838 7.89551C18.7994 8.57585 18.3572 9.38151 18.3572 10.3125V29.7559L20.6519 27.9834C21.0821 27.6611 21.596 27.5 22.1936 27.5C22.7912 27.5 23.3051 27.6611 23.7353 27.9834L26.8188 30.293C27.249 30.6152 27.4641 31.0002 27.4641 31.4478C27.4641 31.8953 27.249 32.2803 26.8188 32.6025L15.9909 40.7666C15.5606 41.0889 14.8196 41.25 13.7679 41.25C12.7162 41.25 11.9513 41.071 11.4733 40.7129L0.645372 32.6025C0.215124 32.2803 0 31.8953 0 31.4478C0 31.0002 0.215124 30.6152 0.645372 30.293L3.72881 27.9834C4.15906 27.6611 4.67297 27.5 5.27053 27.5C5.8681 27.5 6.38201 27.6611 6.81226 27.9834L9.17862 29.7559V10.3125C9.17862 7.44792 10.5172 5.01302 13.1943 3.00781C15.8714 1.0026 19.1221 0 22.9465 0H32.1252C35.9018 0 39.1406 1.0026 41.8416 3.00781C44.5426 5.01302 45.8931 7.44792 45.8931 10.3125H36.7145C36.7145 9.38151 36.2603 8.57585 35.352 7.89551C34.4437 7.21517 33.3681 6.875 32.1252 6.875Z" fill="black"/>
</svg>
