<svg width="69" height="56" viewBox="0 0 69 56" fill="none" xmlns="http://www.w3.org/2000/svg">
<path d="M63.906 0.111084H4.67523C3.55316 0.111084 2.47704 0.556824 1.68362 1.35025C0.890198 2.14367 0.444458 3.21978 0.444458 4.34185V50.8803C0.444458 52.0024 0.890198 53.0785 1.68362 53.8719C2.47704 54.6653 3.55316 55.1111 4.67523 55.1111H63.906C65.0281 55.1111 66.1042 54.6653 66.8976 53.8719C67.691 53.0785 68.1368 52.0024 68.1368 50.8803V4.34185C68.1368 3.21978 67.691 2.14367 66.8976 1.35025C66.1042 0.556824 65.0281 0.111084 63.906 0.111084V0.111084ZM4.67523 4.34185H63.906V8.9957H4.67523V4.34185ZM4.67523 50.8803V12.3803H63.906V50.8803H4.67523Z" fill="black"/>
<path d="M32.1752 38.188H44.8675V42.4188H32.1752V38.188Z" fill="black"/>
<path d="M11.0214 22.7034L25.3848 29.3034L11.0214 35.8823V40.5361L31.3291 31.2073V27.3784L11.0214 18.0496V22.7034Z" fill="black"/>
</svg>
