<svg width="40" height="55" viewBox="0 0 40 55" fill="none" xmlns="http://www.w3.org/2000/svg">
<path d="M1.31541 35.9157L6.73515 1.05742C6.77403 0.79885 6.89351 0.559142 7.07658 0.372446C7.25965 0.185751 7.49697 0.0615925 7.75473 0.0176591C8.01249 -0.0262743 8.27754 0.0122586 8.51212 0.127768C8.7467 0.243278 8.93884 0.429871 9.06118 0.660966L14.8888 11.5944L1.31541 35.9157ZM39.8013 44.3764L34.6451 12.2934C34.6098 12.0666 34.5121 11.8542 34.363 11.6798C34.2138 11.5054 34.0191 11.3759 33.8006 11.3057C33.5822 11.2356 33.3485 11.2276 33.1257 11.2826C32.9029 11.3377 32.6998 11.4535 32.5391 11.6173L0 44.3787L18.0032 54.5239C18.5588 54.836 19.1854 55 19.8228 55C20.4601 55 21.0867 54.836 21.6423 54.5239L39.8013 44.3764ZM25.1715 16.3794L21.0007 8.39986C20.8954 8.19919 20.7373 8.03114 20.5434 7.91388C20.3495 7.79663 20.1273 7.73465 19.9007 7.73465C19.6741 7.73465 19.4518 7.79663 19.2579 7.91388C19.064 8.03114 18.9059 8.19919 18.8007 8.39986L0.490413 41.214L25.1715 16.3794Z" fill="black"/>
</svg>
