<svg width="55" height="55" viewBox="0 0 55 55" fill="none" xmlns="http://www.w3.org/2000/svg">
<path d="M30.482 12.8357C29.0428 9.33401 29.2445 5.39461 31.3231 2.22522L32.8768 0C30.0031 5.38545 32.7393 11.9992 37.1393 15.4665C38.3168 16.388 39.6293 17.1224 41.0306 17.6436C41.4065 17.7811 41.8327 17.9278 42.2223 18.0264C47.1402 19.2639 51.1484 18.4091 53.534 14.8432C53.4607 14.9532 53.3667 15.1274 53.2476 15.3474C52.1842 17.3182 49.0721 23.0864 40.0475 21.276C39.8756 21.2416 39.7106 21.1843 39.5456 21.1316L39.3989 21.0812L39.2935 21.0468C39.2449 21.03 39.196 21.0139 39.1469 20.9987C39.0132 20.9527 38.8803 20.9045 38.7481 20.8543C35.1158 19.4701 32.0014 16.5551 30.482 12.8357Z" fill="black"/>
<path d="M18.6088 6.79713C15.0865 12.0565 15.279 19.0989 18.0267 24.6631C18.5348 25.6984 19.1184 26.695 19.773 27.6445C20.2519 28.3618 20.779 29.1571 21.3955 29.7116C21.6499 30.0027 21.9157 30.2846 22.1861 30.5619L22.342 30.7223L22.3947 30.775C22.6683 31.0516 22.9487 31.3213 23.2357 31.5839L23.238 31.5862L23.2426 31.5908C23.589 31.9042 23.9444 32.2076 24.3082 32.5006L24.3999 32.5739C24.7207 32.8306 25.0484 33.0827 25.3853 33.3233L25.3991 33.3325L25.4151 33.344C25.5228 33.4219 25.6328 33.4975 25.7428 33.5708L25.8643 33.6533C25.9362 33.7009 26.0072 33.7498 26.0774 33.8C26.318 33.9604 26.5609 34.114 26.8084 34.2652L26.8772 34.3042L26.9116 34.3271C27.177 34.4853 27.4451 34.6389 27.7159 34.7877L27.787 34.8244L27.8787 34.8748C27.9978 34.939 28.117 35.0054 28.2407 35.0673L28.3095 35.1017C28.664 35.2822 29.0231 35.4533 29.3866 35.615L29.4599 35.6448C29.801 35.795 30.1456 35.9371 30.4935 36.071L30.5622 36.0963C30.7983 36.1879 31.0343 36.2704 31.2726 36.3529L31.3918 36.3942L31.5935 36.4606C31.6828 36.4881 31.7722 36.5202 31.8593 36.55C32.1091 36.6371 32.3589 36.7219 32.6201 36.7677C50.8023 39.8936 55.0007 25.3643 55.0007 25.3643C51.2171 31.0202 43.8883 33.7198 36.0691 31.6114C35.7229 31.5168 35.379 31.4136 35.0379 31.3021C34.9462 31.2746 34.8545 31.2425 34.7629 31.2104L34.7285 31.1989C34.487 31.1179 34.2471 31.0324 34.0089 30.9423L34.002 30.9377C33.6066 30.788 33.2153 30.6276 32.8287 30.4564L32.7004 30.3991C32.2498 30.1954 31.8064 29.9761 31.3712 29.7414L31.2749 29.691L30.9999 29.5443C30.7489 29.4041 30.5005 29.2589 30.2551 29.1089C29.7704 28.8129 29.2965 28.4995 28.8343 28.1693C28.5005 27.9284 28.1727 27.6793 27.8512 27.4222L27.7709 27.3558C27.7241 27.3179 27.6775 27.2797 27.6312 27.2412C24.2074 24.4362 21.494 20.6022 20.2061 16.2572C18.854 11.7472 19.1451 6.68713 21.4872 2.58044L18.6088 6.79713Z" fill="black"/>
<path d="M3.49289 12.9182C-1.37464 20.1829 -0.769632 29.636 2.94976 37.3544C3.01851 37.5034 3.09414 37.65 3.16747 37.7944L3.22247 37.9044L3.29122 38.0396C3.34887 38.1598 3.41 38.2782 3.47456 38.3948L3.50435 38.4521L3.66477 38.75L3.69914 38.8119C3.81373 39.0228 3.9329 39.2336 4.05435 39.4444L4.09331 39.5132C4.27696 39.8335 4.46876 40.1491 4.66852 40.4596L4.70977 40.5284L4.84498 40.7415C5.03748 41.0394 5.23457 41.3396 5.44082 41.6353V41.6376C5.4457 41.6448 5.45106 41.6517 5.45686 41.6582L5.51186 41.7338L5.5577 41.798C5.73645 42.0501 5.91749 42.3022 6.10312 42.5497L6.30937 42.8201C6.75856 43.4022 7.22318 43.9723 7.70271 44.5297L7.71646 44.5457L7.72792 44.5572L7.74396 44.5755C8.23015 45.1232 8.73303 45.6559 9.25188 46.1728L9.32063 46.2415L9.48334 46.402C9.74306 46.6558 10.0074 46.9049 10.2763 47.1491L10.3519 47.2178L10.4115 47.2682C10.6983 47.5243 10.9886 47.7764 11.2823 48.0245L11.4106 48.1322C11.6054 48.2926 11.8025 48.453 12.0019 48.6089L12.3159 48.8586C12.5359 49.0259 12.7559 49.1909 12.9782 49.3514L13.0148 49.3789L13.2211 49.5301L13.2852 49.5759C13.4869 49.7226 13.6909 49.8601 13.8971 49.9976L13.9292 50.0205C14.0217 50.0827 14.1134 50.1462 14.2042 50.2107C14.5868 50.4618 14.9741 50.7056 15.3661 50.9418L15.4898 51.0151C15.8368 51.2201 16.1875 51.4187 16.5417 51.611L16.6632 51.6774L16.7984 51.7508C16.9336 51.8241 17.0665 51.8974 17.204 51.9685L17.2613 51.996L17.3301 52.0303L17.408 52.0693C17.4538 52.0922 17.5019 52.1151 17.5501 52.1426C17.8342 52.2824 18.1184 52.4199 18.4071 52.5551L18.5149 52.6033L18.5882 52.6376C19.3043 52.9638 20.0329 53.2619 20.7722 53.5314L20.7951 53.5383L20.8913 53.5749C21.4138 53.7628 21.941 53.9371 22.4726 54.0974C22.7384 54.1868 23.0065 54.2739 23.2815 54.3266C46.8331 58.7862 53.6738 39.6369 53.6738 39.6369C47.9286 47.4057 37.7306 49.4568 28.0666 47.1743C27.703 47.086 27.3436 46.9813 26.9895 46.8603L26.7191 46.7755C26.3707 46.6655 26.0247 46.5463 25.6809 46.4249L25.5389 46.3722C25.2295 46.2576 24.927 46.143 24.6222 46.0193L24.3655 45.9138C24.0332 45.7763 23.7032 45.6365 23.3778 45.4876L23.2724 45.4418C22.9619 45.2976 22.6532 45.1494 22.3465 44.9972L22.2526 44.9468C22.2035 44.9234 22.1547 44.8997 22.1059 44.8757L21.6155 44.6167L21.4597 44.5342C21.4087 44.5064 21.3575 44.4789 21.3061 44.4517L21.0311 44.3005C20.7699 44.1561 20.5132 44.0026 20.2565 43.849L20.158 43.7917L19.9976 43.7001C19.5986 43.454 19.2044 43.2003 18.8151 42.9392L18.7165 42.8705C17.7385 42.2184 16.801 41.5074 15.9092 40.7415C15.6368 40.5111 15.3678 40.2766 15.1025 40.038L15.0659 40.0036C14.7175 39.6831 14.3752 39.3561 14.0392 39.0228C13.8451 38.831 13.6541 38.6362 13.4663 38.4384L13.3884 38.3605C13.0916 38.0503 12.8012 37.734 12.5175 37.4117L12.5038 37.398L12.4992 37.3911C12.2563 37.1161 12.0179 36.8319 11.7842 36.5477L11.5963 36.3163C11.3564 36.0188 11.1218 35.717 10.8927 35.4111C10.6911 35.1361 10.4917 34.8657 10.2969 34.5884C4.93436 26.9937 3.00706 16.5162 7.29479 7.91321L3.49289 12.9182Z" fill="black"/>
</svg>
