<svg width="55" height="55" viewBox="0 0 55 55" fill="none" xmlns="http://www.w3.org/2000/svg">
<rect width="55" height="55" rx="2" fill="black"/>
<path d="M27.0723 34.666C27.0723 37.5957 26.4043 39.9453 25.0684 41.7148C23.7441 43.4727 21.9512 44.3516 19.6895 44.3516C17.7676 44.3516 16.2148 43.6836 15.0312 42.3477V51.3125H9.95117V24.9805H14.6621L14.8379 26.8438C16.0684 25.3672 17.6738 24.6289 19.6543 24.6289C21.998 24.6289 23.8203 25.4961 25.1211 27.2305C26.4219 28.9648 27.0723 31.3555 27.0723 34.4023V34.666ZM21.9922 34.2969C21.9922 32.5273 21.6758 31.1621 21.043 30.2012C20.4219 29.2402 19.5137 28.7598 18.3184 28.7598C16.7246 28.7598 15.6289 29.3691 15.0312 30.5879V38.375C15.6523 39.6289 16.7598 40.2559 18.3535 40.2559C20.7793 40.2559 21.9922 38.2695 21.9922 34.2969ZM30.7812 31.4141L32.2578 18.4062H46.6016V22.6426H36.4238L35.791 28.1445C36.998 27.5 38.2812 27.1777 39.6406 27.1777C42.0781 27.1777 43.9883 27.9336 45.3711 29.4453C46.7539 30.957 47.4453 33.0723 47.4453 35.791C47.4453 37.4434 47.0938 38.9258 46.3906 40.2383C45.6992 41.5391 44.7031 42.5527 43.4023 43.2793C42.1016 43.9941 40.5664 44.3516 38.7969 44.3516C37.25 44.3516 35.8145 44.041 34.4902 43.4199C33.166 42.7871 32.1172 41.9023 31.3438 40.7656C30.582 39.6289 30.1777 38.334 30.1309 36.8809H35.1582C35.2637 37.9473 35.6328 38.7793 36.2656 39.377C36.9102 39.9629 37.748 40.2559 38.7793 40.2559C39.9277 40.2559 40.8125 39.8457 41.4336 39.0254C42.0547 38.1934 42.3652 37.0215 42.3652 35.5098C42.3652 34.0566 42.0078 32.9434 41.293 32.1699C40.5781 31.3965 39.5645 31.0098 38.252 31.0098C37.0449 31.0098 36.0664 31.3262 35.3164 31.959L34.8242 32.416L30.7812 31.4141Z" fill="#FFFEFE"/>
</svg>
