<svg width="55" height="56" viewBox="0 0 55 56" fill="none" xmlns="http://www.w3.org/2000/svg">
<path d="M27.6497 55.9919C20.4318 55.9168 13.5392 52.9778 8.48807 47.8213C3.4369 42.6647 0.640731 35.713 0.714561 28.4951C0.700711 21.2325 3.53055 14.2531 8.5983 9.05091C11.0729 6.50103 14.0343 4.47387 17.3068 3.08955C20.5793 1.70524 24.0964 0.991943 27.6497 0.991943C31.2029 0.991943 34.7201 1.70524 37.9926 3.08955C41.2651 4.47387 44.2264 6.50103 46.7011 9.05091C51.7688 14.2531 54.5986 21.2325 54.5848 28.4951C54.6586 35.713 51.8625 42.6647 46.8113 47.8213C41.7601 52.9778 34.8676 55.9168 27.6497 55.9919Z" fill="black"/>
<path d="M19.5361 42.2729H18.7505C18.0579 42.2844 17.3665 42.2098 16.6922 42.051C16.0798 41.8791 15.5468 41.4983 15.1858 40.9747C14.751 40.3822 14.4745 39.6886 14.3825 38.9595C14.2524 37.8331 14.196 36.6994 14.2135 35.5656C14.2343 34.4589 14.1818 33.3521 14.0564 32.2523C13.9726 31.5831 13.6963 30.9526 13.261 30.4375C12.9995 30.1729 12.6843 29.9674 12.3367 29.835C11.9891 29.7025 11.6171 29.6461 11.2458 29.6695V27.3166C11.6171 27.34 11.9891 27.2836 12.3367 27.1512C12.6843 27.0187 12.9995 26.8132 13.261 26.5486C13.6963 26.0335 13.9726 25.403 14.0564 24.7339C14.1818 23.6341 14.2343 22.5272 14.2135 21.4205C14.1945 20.2848 14.2496 19.1492 14.3785 18.0207C14.4706 17.2916 14.7471 16.598 15.1818 16.0056C15.5429 15.4819 16.0759 15.1012 16.6883 14.9293C17.3625 14.7704 18.0539 14.6959 18.7466 14.7073H19.5322V16.9464H19.0883C18.0932 16.9464 17.4837 17.2082 17.2598 17.732C16.9465 19.1296 16.8327 20.5645 16.922 21.994C17.0251 23.5542 16.7445 25.1159 16.1049 26.5427C15.5668 27.4943 14.6757 28.1957 13.6243 28.495C14.1453 28.6385 14.6327 28.8834 15.0588 29.2157C15.4848 29.548 15.841 29.9612 16.1069 30.4316C16.7465 31.857 17.0277 33.4173 16.9259 34.9764C16.8367 36.4059 16.9504 37.8408 17.2637 39.2384C17.4889 39.7622 18.0985 40.0241 19.0923 40.0241H19.5361V42.2729ZM22.6786 36.1038H24.7114V29.3199H27.577L31.4462 36.1038H33.7717L29.6923 29.1C30.7425 28.9061 31.6865 28.3374 32.3488 27.4996C33.011 26.6617 33.3463 25.6119 33.2924 24.5453C33.2924 21.2064 30.9356 20.0397 27.685 20.0397H22.6885L22.6786 36.1038ZM24.7114 27.6583V21.6797H27.3806C29.8789 21.6797 31.2498 22.4379 31.2498 24.5453C31.2498 26.6527 29.875 27.6544 27.3806 27.6544L24.7114 27.6583ZM35.6257 14.7132H36.4114C37.104 14.7018 37.7954 14.7763 38.4697 14.9352C39.0821 15.107 39.615 15.4878 39.9761 16.0115C40.4109 16.6039 40.6874 17.2975 40.7794 18.0266C40.9084 19.155 40.9635 20.2907 40.9444 21.4264C40.9237 22.5331 40.9762 23.64 41.1015 24.7397C41.1853 25.4089 41.4617 26.0394 41.897 26.5545C42.1585 26.8191 42.4736 27.0246 42.8212 27.1571C43.1689 27.2895 43.5408 27.3459 43.9121 27.3225V29.6617C43.5408 29.6382 43.1689 29.6946 42.8212 29.8271C42.4736 29.9596 42.1585 30.165 41.897 30.4296C41.4617 30.9448 41.1853 31.5752 41.1015 32.2444C40.9762 33.3442 40.9237 34.4511 40.9444 35.5578C40.9635 36.6934 40.9084 37.8291 40.7794 38.9576C40.6874 39.6867 40.4109 40.3802 39.9761 40.9727C39.615 41.4963 39.0821 41.8771 38.4697 42.049C37.7954 42.2078 37.104 42.2824 36.4114 42.2709H35.6257V40.0319H36.0696C37.0647 40.0319 37.6742 39.77 37.8981 39.2463C38.2188 37.8471 38.3392 36.4095 38.2556 34.9764C38.1525 33.4162 38.433 31.8545 39.0727 30.4277C39.6082 29.4812 40.4976 28.7861 41.5454 28.495C40.4933 28.1961 39.6014 27.4947 39.0628 26.5427C38.4232 25.1159 38.1427 23.5542 38.2458 21.994C38.335 20.5645 38.2213 19.1296 37.908 17.732C37.6828 17.2082 37.0732 16.9464 36.0794 16.9464H35.6355L35.6257 14.7132Z" fill="white"/>
</svg>
