<svg width="41" height="34" viewBox="0 0 41 34" fill="none" xmlns="http://www.w3.org/2000/svg">
<path d="M38.7817 2.01681C38.7817 2.01681 35.4079 4.00971 33.532 4.57482C32.5251 3.41704 31.1869 2.59645 29.6984 2.224C28.2099 1.85156 26.6429 1.94525 25.2094 2.49239C23.7759 3.03953 22.545 4.01373 21.6832 5.28323C20.8214 6.55272 20.3703 8.05627 20.3909 9.59051V11.2624C17.4527 11.3386 14.5414 10.687 11.916 9.36555C9.29072 8.04414 7.03294 6.09396 5.3438 3.68871C5.3438 3.68871 -1.3438 18.7358 13.7033 25.4234C10.2601 27.7606 6.15827 28.9326 2 28.7672C17.0471 37.1267 35.438 28.7672 35.438 9.54035C35.438 9.07556 35.3911 8.61078 35.3042 8.15268C37.0095 6.47075 38.7817 2.01681 38.7817 2.01681Z" stroke="black" stroke-width="4" stroke-linecap="round" stroke-linejoin="round"/>
</svg>
