<svg width="57" height="56" viewBox="0 0 57 56" fill="none" xmlns="http://www.w3.org/2000/svg">
<path d="M54.362 6.02868L42.9702 0.544178C42.3269 0.233991 41.603 0.13163 40.8989 0.251282C40.1947 0.370935 39.5453 0.706675 39.0405 1.21196L1.74948 35.2096C1.29703 35.6201 1.02619 36.1936 0.996551 36.8038C0.96691 37.414 1.18089 38.0111 1.59142 38.4635C1.64081 38.5169 1.69021 38.5682 1.74355 38.6156L4.78808 41.3816C5.18591 41.7437 5.698 41.955 6.2354 41.9788C6.7728 42.0026 7.30157 41.8375 7.72988 41.512L52.6471 7.45118C52.9864 7.19373 53.3908 7.03609 53.8148 6.99601C54.2388 6.95593 54.6655 7.035 55.047 7.22431C55.4285 7.41363 55.7496 7.70567 55.9742 8.06757C56.1987 8.42948 56.3177 8.84687 56.3179 9.27276V9.14039C56.3179 8.49019 56.1343 7.85321 55.7883 7.30273C55.4423 6.75225 54.9479 6.31063 54.362 6.02868V6.02868Z" fill="black"/>
<path d="M54.362 49.3752L42.9702 54.8617C42.3267 55.171 41.603 55.2729 40.8991 55.1533C40.1952 55.0337 39.5458 54.6985 39.0405 54.1939L1.74948 20.1944C1.29703 19.7838 1.02619 19.2104 0.996551 18.6001C0.96691 17.9899 1.18089 17.3929 1.59142 16.9404C1.64081 16.8871 1.69021 16.8357 1.74355 16.7883L4.78808 14.0223C5.18632 13.6587 5.69957 13.4465 6.2383 13.4227C6.77703 13.3988 7.30702 13.5649 7.7358 13.8919L52.6471 47.9528C52.9864 48.2102 53.3908 48.3678 53.8148 48.4079C54.2388 48.448 54.6655 48.3689 55.047 48.1796C55.4285 47.9903 55.7496 47.6983 55.9742 47.3364C56.1987 46.9745 56.3177 46.5571 56.3179 46.1312V46.2734C56.3158 46.9219 56.1312 47.5567 55.7853 48.1052C55.4395 48.6537 54.9462 49.0938 54.362 49.3752V49.3752Z" fill="black"/>
<path d="M42.9702 54.8617C42.3267 55.171 41.603 55.2729 40.8991 55.1533C40.1952 55.0337 39.5458 54.6985 39.0406 54.1939C39.3243 54.474 39.6843 54.664 40.0756 54.7403C40.4669 54.8166 40.8719 54.7757 41.24 54.6227C41.6082 54.4698 41.923 54.2116 42.145 53.8805C42.367 53.5494 42.4864 53.1602 42.4881 52.7616V2.64238C42.4885 2.24188 42.3699 1.8503 42.1475 1.51723C41.9251 1.18417 41.6089 0.924607 41.2388 0.771427C40.8688 0.618248 40.4616 0.578344 40.0689 0.656771C39.6761 0.735198 39.3155 0.928427 39.0327 1.21198C39.5375 0.706878 40.1868 0.371117 40.8908 0.251132C41.5948 0.131147 42.3186 0.232866 42.9623 0.542223L54.3521 6.01882C54.9399 6.29937 55.4363 6.74038 55.7841 7.29097C56.1319 7.84156 56.317 8.47927 56.3179 9.13053V46.2734C56.3181 46.9242 56.1344 47.5617 55.788 48.1126C55.4416 48.6635 54.9466 49.1053 54.36 49.3871L42.9702 54.8617Z" fill="black"/>
</svg>
