<svg width="80" height="56" viewBox="0 0 80 56" fill="none" xmlns="http://www.w3.org/2000/svg">
<path d="M58.9364 16.4229C58.9364 16.4229 52.4938 36.6279 51.9674 38.2964C50.3451 25.6334 48.7074 12.9723 47.0544 0.313232C36.0763 0.313232 30.2065 8.12639 27.1044 16.3732L18.6125 38.3461C18.5629 36.7702 17.4207 16.6116 17.4207 16.6116C16.7453 6.50748 7.48871 0.356271 0 0.356271L9.0679 55.3132C20.5691 55.2636 26.77 47.4968 30.0178 39.2499C30.0178 39.2499 36.937 21.379 37.2218 20.5679C37.2714 21.3293 42.1877 55.3099 42.1877 55.3099C53.7353 55.3099 59.9395 48.0199 63.2767 40.061L79.4559 0.359581C68.0506 0.359581 62.0385 8.12639 58.9364 16.4196V16.4229Z" fill="black"/>
</svg>
